<svg xmlns="http://www.w3.org/2000/svg" fill="none" viewBox="0 0 95 88">
  <path
    fill="currentColor"
    d="m94.752 25.206-6.76-11.736a1.857 1.857 0 0 0-1.6-.927H73.146l-6.63-11.5a1.857 1.857 0 0 0-1.6-.927h-13.52a1.849 1.849 0 0 0-1.6.926L43.17 12.543H29.969a1.85 1.85 0 0 0-1.602.932l-5.15 9.044-8.91-3.346a5.21 5.21 0 0 0-6.094 1.891 5.258 5.258 0 0 0 .267 6.396 6.682 6.682 0 0 0-3.098 3.314 6.713 6.713 0 0 0-.274 4.535 6.573 6.573 0 0 0 2.652 3.65 6.534 6.534 0 0 0 4.373 1.072 5.22 5.22 0 0 0 1.421 4.196c.986 1.03 2.51 1.596 3.922 1.596 1.541-.102 3.124-.885 4.04-2.136l5.41-7.394 1.306 2.268-6.489 11.265H8.607a1.849 1.849 0 0 0-1.6.927L.247 62.489a1.865 1.865 0 0 0 0 1.856l6.76 11.735a1.857 1.857 0 0 0 1.6.927h13.29l6.499 10.033a1.845 1.845 0 0 0 1.55.844h13.57a1.838 1.838 0 0 0 1.545-.837l6.561-10.04h5.716l-.086.366a6.452 6.452 0 0 0 1.1 5.304 6.414 6.414 0 0 0 7.774 2.03 6.36 6.36 0 0 0 2.367-1.843 8.292 8.292 0 0 0 3.016 2.935 8.259 8.259 0 0 0 4.063 1.072 8.189 8.189 0 0 0 6.57-3.293 8.251 8.251 0 0 0 1.315-7.25c.11.006.22.012.33.011a6.343 6.343 0 0 0 4.982-2.391 6.42 6.42 0 0 0 1.313-5.136 6.424 6.424 0 0 0-2.991-4.372c.379-.155.696-.432.902-.788l6.76-11.735a1.865 1.865 0 0 0 0-1.856l-6.627-11.497 6.625-11.502a1.866 1.866 0 0 0 0-1.856ZM51.666 2.441h12.98l6.49 11.261-6.49 11.269h-12.98l-6.489-11.265 6.49-11.265Zm13.93 53.673a4.323 4.323 0 0 1-3.305.072 4.343 4.343 0 0 1-2.766-3.93 4.296 4.296 0 0 1 .29-1.66 4.334 4.334 0 0 1 1.55-1.975 4.312 4.312 0 0 1 6.428 1.8 4.319 4.319 0 0 1-2.196 5.694l-.001-.001Zm2.16 3.43a10.92 10.92 0 0 1-1.175.434l-.299-1.635.42-.183 1.054 1.384Zm-1.05-13.367a6.691 6.691 0 0 0-1.588-.533c-.36-1.843-.167-3.373.576-4.556a3.924 3.924 0 0 1 1.432-1.381 1.161 1.161 0 0 0 .57-1.534 1.16 1.16 0 0 0-1.524-.585 6.023 6.023 0 0 0-2.34 2.109c-.765 1.148-1.505 3.059-1.071 5.903a6.656 6.656 0 0 0-3.041 1.344c-1.813-2.239-3.725-2.977-5.089-3.185a6.012 6.012 0 0 0-3.133.31 1.161 1.161 0 0 0-.57 1.516 1.16 1.16 0 0 0 1.494.615c.03-.013 2.942-1.219 5.739 2.52-.199.329-.368.675-.507 1.035-.01.023-.017.047-.026.07h-5.913l-6.49-11.267 6.444-11.263h12.977l6.488 11.264-4.427 7.618ZM9.625 23.543a2.923 2.923 0 0 1 1.428-1.998 2.902 2.902 0 0 1 2.442-.194l13.06 4.905-13.94.738A2.884 2.884 0 0 1 10.28 26a2.906 2.906 0 0 1-.657-2.457Zm17.928 4.988-4.483 2.626a7.47 7.47 0 0 1-.517-2.361l5-.265Zm-6.5 3.807L18.61 33.77c-1.032-1.533-1.156-3.356-1.052-4.708l2.681-.142a9.694 9.694 0 0 0 .815 3.418Zm-8.361 5.224a4.29 4.29 0 0 1-4.58-1.418 4.321 4.321 0 0 1-.782-1.495 4.373 4.373 0 0 1 .346-3.306 4.348 4.348 0 0 1 2.57-2.1l.04-.012c-.055 1.935.226 5.379 2.457 8.314l-.051.017Zm-.087-8.243 2.624-.136c-.089 1.667.129 3.836 1.376 5.76l-2.021 1.189c-1.793-2.374-2.016-5.247-1.979-6.813Zm7.045 12.992a2.9 2.9 0 0 1-2.142 1.186 2.887 2.887 0 0 1-2.95-2.005 2.931 2.931 0 0 1 1.305-3.422l12.058-7.062L19.65 42.31Zm8.506-17.937-2.74-1.029 4.827-8.477h12.93l6.489 11.268L43.217 37.4H30.24l-1.815-3.153 1.847-2.525.036.02a5.337 5.337 0 0 0 4.107.423 5.402 5.402 0 0 0 2.149-1.242 5.427 5.427 0 0 0 1.37-2.075c2.035-.09 3.052.678 3.53 1.285a1.16 1.16 0 0 0 1.253.406l.035-.011a1.146 1.146 0 0 0 .782-1.335 1.15 1.15 0 0 0-.245-.504 6.34 6.34 0 0 0-.692-.701c-.809-.707-2.185-1.467-4.342-1.47a5.451 5.451 0 0 0-.628-2.128c2.14-1.419 2.898-3.212 3.032-4.624a1.163 1.163 0 0 0-1.06-1.26 1.152 1.152 0 0 0-1.126.634c-.068.137-.11.287-.12.44-.071.774-.506 1.981-2.263 3.033a5.375 5.375 0 0 0-4.733-.834 5.395 5.395 0 0 0-3.201 2.597v-.002Zm3.853-.365a3.053 3.053 0 0 1 3.263 1.01c.254.314.444.676.558 1.065.23.788.142 1.635-.248 2.357a3.1 3.1 0 0 1-1.83 1.497 3.055 3.055 0 0 1-3.264-1.01 3.078 3.078 0 0 1-.558-1.066 3.118 3.118 0 0 1 .248-2.357 3.1 3.1 0 0 1 1.831-1.496ZM30.24 39.724h12.98l6.488 11.265-6.489 11.265H30.24L23.753 50.99l6.488-11.265Zm-8.388 34.958H8.878l-6.49-11.265 6.49-11.266h12.866l6.496 11.277-6.388 11.254Zm21.41 10.877H30.2l-6.318-9.755 6.372-11.225H43.23l6.41 11.224-6.378 9.756Zm14.62-10.877H51.67L45.23 63.409l6.484-11.257h5.492a6.665 6.665 0 0 0 1.24 3.865 6.628 6.628 0 0 0 3.249 2.42l-3.813 16.245Zm8.668 6.888a4.09 4.09 0 0 1-4.94.915 4.102 4.102 0 0 1-1.835-1.928 4.12 4.12 0 0 1-.269-2.65l4.495-19.094a.02.02 0 0 1 .017.014l3.493 19.305a4.067 4.067 0 0 1-.96 3.438Zm.448-19.29a13.257 13.257 0 0 0 2.206-.846l2.088 2.726a10.107 10.107 0 0 1-3.709 1.356l-.585-3.236Zm1 5.525a12.327 12.327 0 0 0 4.71-1.795l2.584 3.373c-1.148 1.099-3.202 2.382-6.562 2.471l-.733-4.05Zm1.15 6.357c2.21-.115 5.19-.738 7.565-2.923l2.27 2.934c-2.991 3.115-7.115 3.85-9.126 4.018l-.71-4.03Zm11.923 6.603a5.879 5.879 0 0 1-3.124 3.277 5.927 5.927 0 0 1-4.533.1 5.954 5.954 0 0 1-3.284-3.136l-.214-.484c2.387-.175 7.232-1.015 10.811-4.817l.232.526a5.893 5.893 0 0 1 .112 4.534Zm6.716-11.616a4.111 4.111 0 0 1-.392 2.663 4.09 4.09 0 0 1-1.953 1.844 4.072 4.072 0 0 1-4.912-1.25L68.597 56.812a.016.016 0 0 1 .011-.005.02.02 0 0 1 .01.003l17.136 9.538a4.086 4.086 0 0 1 2.033 2.8Zm4.823-18.16-6.489 11.265h-2.946l-13.267-7.385a6.655 6.655 0 0 0-1.308-7.334l4.54-7.811h12.978l6.492 11.265Zm-6.489-13.59H73.142l-6.488-11.266 6.488-11.265h12.98l6.489 11.266-6.49 11.264Z"
  />
</svg>
