<svg xmlns="http://www.w3.org/2000/svg" fill="none" viewBox="0 0 95 96">
  <path
    fill="currentColor"
    d="M19.634 77.506v15.617h-3.059a1.19 1.19 0 0 0-1.193 1.188 1.19 1.19 0 0 0 1.193 1.188h8.504a1.19 1.19 0 0 0 1.193-1.188 1.19 1.19 0 0 0-1.193-1.188h-3.057V77.488c7.817-.81 14.674-9.513 17.836-22.727a23.488 23.488 0 0 0 10.895 3.524v34.838h-3.059a1.19 1.19 0 0 0-1.193 1.188 1.19 1.19 0 0 0 1.194 1.188h8.503a1.19 1.19 0 0 0 1.193-1.188 1.19 1.19 0 0 0-1.193-1.188H53.14V58.327a23.466 23.466 0 0 0 7.72-1.576c2.128 6.672 8.195 11.596 15.467 12.089v24.284H73.27a1.19 1.19 0 0 0-1.193 1.188A1.19 1.19 0 0 0 73.27 95.5h8.504a1.19 1.19 0 0 0 1.193-1.188 1.19 1.19 0 0 0-1.193-1.188h-3.058V68.84C87.797 68.223 95 60.692 95 51.497c0-9.596-7.84-17.402-17.478-17.402-.536 0-1.065.033-1.588.08C75.56 21.54 65.145 11.37 52.367 11.37c-5.524 0-10.6 1.912-14.626 5.09C33.854 6.454 27.583.5 20.832.5 9.15.5 0 17.426 0 39.034c-.004 20.867 8.53 37.362 19.634 38.472ZM92.61 51.498c0 7.884-6.135 14.357-13.899 14.966v-4.82l7.307-7.273a1.183 1.183 0 0 0 0-1.68 1.195 1.195 0 0 0-1.687 0l-5.62 5.594V48.041a1.19 1.19 0 0 0-1.193-1.188 1.19 1.19 0 0 0-1.193 1.188v10.244l-5.618-5.593a1.195 1.195 0 0 0-1.688 0 1.183 1.183 0 0 0 0 1.68l7.306 7.273v4.82c-7.765-.61-13.898-7.083-13.898-14.967 0-8.286 6.77-15.026 15.091-15.026s15.092 6.74 15.092 15.026ZM73.56 34.562c-7.735 1.792-13.52 8.695-13.52 16.935 0 .997.104 1.97.267 2.923-2.3.929-4.704 1.44-7.17 1.53v-6.734l10.185-10.14a1.183 1.183 0 0 0 0-1.68 1.195 1.195 0 0 0-1.687 0l-8.497 8.46V30.822a1.19 1.19 0 0 0-1.194-1.188c-.66 0-1.193.531-1.193 1.188v15.034l-8.497-8.46a1.195 1.195 0 0 0-1.687 0 1.183 1.183 0 0 0 0 1.68l10.184 10.14v6.694c-10.945-.826-19.605-9.936-19.605-21.042 0-11.647 9.518-21.122 21.216-21.122 11.593 0 21.028 9.306 21.199 20.816ZM20.83 2.876c5.896 0 11.501 5.702 15 15.251-4.358 4.266-7.07 10.192-7.07 16.743 0 7.468 3.53 14.119 9.001 18.425-2.793 12.579-8.886 20.937-15.74 21.812v-7.492l5.392-5.37a1.183 1.183 0 0 0 0-1.679 1.195 1.195 0 0 0-1.687 0l-3.705 3.689v-6.55l5.393-5.37a1.183 1.183 0 0 0 0-1.68 1.195 1.195 0 0 0-1.687 0l-3.704 3.689v-7.76a1.19 1.19 0 0 0-1.193-1.189 1.19 1.19 0 0 0-1.194 1.188v7.761l-3.703-3.688a1.195 1.195 0 0 0-1.687 0 1.183 1.183 0 0 0 0 1.68l5.392 5.367v6.55l-3.704-3.69a1.196 1.196 0 0 0-1.687 0 1.183 1.183 0 0 0 0 1.68l5.392 5.369v7.494C10.022 73.894 2.386 58.182 2.386 39.031 2.383 19.097 10.658 2.876 20.83 2.876Z"
  />
</svg>
